<?xml version="1.0" encoding="us-ascii" standalone="no"?><svg xmlns="http://www.w3.org/2000/svg" xmlns:xlink="http://www.w3.org/1999/xlink" contentStyleType="text/css" height="346px" preserveAspectRatio="none" style="width:420px;height:346px;background:#FFFFFF;" version="1.1" viewBox="0 0 420 346" width="420px" zoomAndPan="magnify"><defs/><g><!--class LocationManager--><g id="elem_LocationManager"><rect codeLine="1" fill="#F1F1F1" height="153.6563" id="LocationManager" rx="2.5" ry="2.5" style="stroke:#181818;stroke-width:0.5;" width="171" x="116.5" y="7"/><ellipse cx="144.55" cy="23" fill="#ADD1B2" rx="11" ry="11" style="stroke:#181818;stroke-width:1.0;"/><path d="M147.3156,18.875 Q147.4719,18.6563 147.6594,18.5469 Q147.8469,18.4375 148.0656,18.4375 Q148.4406,18.4375 148.675,18.7031 Q148.9094,18.9531 148.9094,19.5625 L148.9094,21.0156 Q148.9094,21.625 148.675,21.8906 Q148.4406,22.1563 148.0656,22.1563 Q147.7219,22.1563 147.5188,21.9531 Q147.3156,21.7656 147.2063,21.25 Q147.1594,20.8906 146.9719,20.7031 Q146.6438,20.3281 146.0344,20.1094 Q145.425,19.8906 144.8,19.8906 Q144.0344,19.8906 143.3938,20.2188 Q142.7688,20.5469 142.2688,21.2969 Q141.7844,22.0469 141.7844,23.0781 L141.7844,24.1719 Q141.7844,25.4063 142.675,26.2344 Q143.5656,27.0469 145.1594,27.0469 Q146.0969,27.0469 146.7531,26.7969 Q147.1438,26.6406 147.5656,26.2031 Q147.8313,25.9375 147.9719,25.8594 Q148.1281,25.7813 148.3313,25.7813 Q148.6594,25.7813 148.9094,26.0469 Q149.175,26.2969 149.175,26.6406 Q149.175,26.9844 148.8313,27.3906 Q148.3313,27.9688 147.5344,28.2969 Q146.4563,28.75 145.1594,28.75 Q143.6438,28.75 142.4406,28.125 Q141.4563,27.625 140.7688,26.5625 Q140.0813,25.4844 140.0813,24.2031 L140.0813,23.0469 Q140.0813,21.7188 140.6906,20.5781 Q141.3156,19.4219 142.4094,18.8125 Q143.5031,18.1875 144.7375,18.1875 Q145.4719,18.1875 146.1125,18.3594 Q146.7688,18.5156 147.3156,18.875 Z " fill="#000000"/><text fill="#000000" font-family="sans-serif" font-size="14" lengthAdjust="spacing" textLength="110" x="161.45" y="28.7285">LocationManager</text><line style="stroke:#181818;stroke-width:0.5;" x1="117.5" x2="286.5" y1="39" y2="39"/><line style="stroke:#181818;stroke-width:0.5;" x1="117.5" x2="286.5" y1="47" y2="47"/><ellipse cx="127.5" cy="61.3047" fill="#84BE84" rx="3" ry="3" style="stroke:#038048;stroke-width:1.0;"/><text fill="#000000" font-family="sans-serif" font-size="14" lengthAdjust="spacing" textLength="127" x="136.5" y="65.5332">getFinePermission()</text><ellipse cx="127.5" cy="78.9141" fill="#84BE84" rx="3" ry="3" style="stroke:#038048;stroke-width:1.0;"/><text fill="#000000" font-family="sans-serif" font-size="14" lengthAdjust="spacing" textLength="145" x="136.5" y="83.1426">getCoarsePermission()</text><ellipse cx="127.5" cy="96.5234" fill="#84BE84" rx="3" ry="3" style="stroke:#038048;stroke-width:1.0;"/><text fill="#000000" font-family="sans-serif" font-size="14" lengthAdjust="spacing" textLength="84" x="136.5" y="100.752">getLocation()</text><ellipse cx="127.5" cy="114.1328" fill="#84BE84" rx="3" ry="3" style="stroke:#038048;stroke-width:1.0;"/><text fill="#000000" font-family="sans-serif" font-size="14" lengthAdjust="spacing" textLength="93" x="136.5" y="118.3613">startTracking()</text><ellipse cx="127.5" cy="131.7422" fill="#84BE84" rx="3" ry="3" style="stroke:#038048;stroke-width:1.0;"/><text fill="#000000" font-family="sans-serif" font-size="14" lengthAdjust="spacing" textLength="92" x="136.5" y="135.9707">stopTracking()</text><text fill="#000000" font-family="sans-serif" font-size="14" lengthAdjust="spacing" textLength="87" x="136.5" y="153.5801">useCallback()</text></g><!--class LocationWorker--><g id="elem_LocationWorker"><rect codeLine="9" fill="#F1F1F1" height="100.8281" id="LocationWorker" rx="2.5" ry="2.5" style="stroke:#181818;stroke-width:0.5;" width="170" x="7" y="229.5"/><ellipse cx="39.1" cy="245.5" fill="#ADD1B2" rx="11" ry="11" style="stroke:#181818;stroke-width:1.0;"/><path d="M41.8656,241.375 Q42.0219,241.1563 42.2094,241.0469 Q42.3969,240.9375 42.6156,240.9375 Q42.9906,240.9375 43.225,241.2031 Q43.4594,241.4531 43.4594,242.0625 L43.4594,243.5156 Q43.4594,244.125 43.225,244.3906 Q42.9906,244.6563 42.6156,244.6563 Q42.2719,244.6563 42.0688,244.4531 Q41.8656,244.2656 41.7563,243.75 Q41.7094,243.3906 41.5219,243.2031 Q41.1938,242.8281 40.5844,242.6094 Q39.975,242.3906 39.35,242.3906 Q38.5844,242.3906 37.9438,242.7188 Q37.3188,243.0469 36.8188,243.7969 Q36.3344,244.5469 36.3344,245.5781 L36.3344,246.6719 Q36.3344,247.9063 37.225,248.7344 Q38.1156,249.5469 39.7094,249.5469 Q40.6469,249.5469 41.3031,249.2969 Q41.6938,249.1406 42.1156,248.7031 Q42.3813,248.4375 42.5219,248.3594 Q42.6781,248.2813 42.8813,248.2813 Q43.2094,248.2813 43.4594,248.5469 Q43.725,248.7969 43.725,249.1406 Q43.725,249.4844 43.3813,249.8906 Q42.8813,250.4688 42.0844,250.7969 Q41.0063,251.25 39.7094,251.25 Q38.1938,251.25 36.9906,250.625 Q36.0063,250.125 35.3188,249.0625 Q34.6313,247.9844 34.6313,246.7031 L34.6313,245.5469 Q34.6313,244.2188 35.2406,243.0781 Q35.8656,241.9219 36.9594,241.3125 Q38.0531,240.6875 39.2875,240.6875 Q40.0219,240.6875 40.6625,240.8594 Q41.3188,241.0156 41.8656,241.375 Z " fill="#000000"/><text fill="#000000" font-family="sans-serif" font-size="14" lengthAdjust="spacing" textLength="100" x="56.9" y="251.2285">LocationWorker</text><line style="stroke:#181818;stroke-width:0.5;" x1="8" x2="176" y1="261.5" y2="261.5"/><line style="stroke:#181818;stroke-width:0.5;" x1="8" x2="176" y1="269.5" y2="269.5"/><text fill="#000000" font-family="sans-serif" font-size="14" lengthAdjust="spacing" textLength="59" x="27" y="288.0332">doWork()</text><text fill="#000000" font-family="sans-serif" font-size="14" lengthAdjust="spacing" textLength="79" x="27" y="305.6426">onStopped()</text><rect fill="#F24D5C" height="6" style="stroke:#C82930;stroke-width:1.0;" width="6" x="15" y="316.0234"/><text fill="#000000" font-family="sans-serif" font-size="14" lengthAdjust="spacing" textLength="144" x="27" y="323.252">startLocationUpdates()</text></g><!--class LocationObfuscator--><g id="elem_LocationObfuscator"><rect codeLine="14" fill="#F1F1F1" height="118.4375" id="LocationObfuscator" rx="2.5" ry="2.5" style="stroke:#181818;stroke-width:0.5;" width="201" x="212.5" y="221"/><ellipse cx="247.75" cy="237" fill="#B4A7E5" rx="11" ry="11" style="stroke:#181818;stroke-width:1.0;"/><path d="M248.7031,233.6406 L248.7031,240.2969 L250.4219,240.2969 Q251.0313,240.2969 251.2969,240.5313 Q251.5625,240.7656 251.5625,241.1563 Q251.5625,241.5313 251.2969,241.7656 Q251.0313,242 250.4219,242 L245.2813,242 Q244.6719,242 244.4063,241.7656 Q244.1406,241.5313 244.1406,241.1406 Q244.1406,240.7656 244.4063,240.5313 Q244.6719,240.2969 245.2813,240.2969 L247,240.2969 L247,233.6406 L245.2813,233.6406 Q244.6719,233.6406 244.4063,233.4063 Q244.1406,233.1719 244.1406,232.7813 Q244.1406,232.4063 244.4063,232.1719 Q244.6719,231.9375 245.2813,231.9375 L250.4219,231.9375 Q251.0313,231.9375 251.2969,232.1719 Q251.5625,232.4063 251.5625,232.7813 Q251.5625,233.1719 251.2969,233.4063 Q251.0313,233.6406 250.4219,233.6406 L248.7031,233.6406 Z " fill="#000000"/><text fill="#000000" font-family="sans-serif" font-size="14" font-style="italic" lengthAdjust="spacing" textLength="124" x="266.25" y="242.7285">LocationObfuscator</text><line style="stroke:#181818;stroke-width:0.5;" x1="213.5" x2="412.5" y1="253" y2="253"/><line style="stroke:#181818;stroke-width:0.5;" x1="213.5" x2="412.5" y1="261" y2="261"/><ellipse cx="223.5" cy="275.3047" fill="#84BE84" rx="3" ry="3" style="stroke:#038048;stroke-width:1.0;"/><text fill="#000000" font-family="sans-serif" font-size="14" lengthAdjust="spacing" textLength="175" x="232.5" y="279.5332">obfuscateLocation(location)</text><ellipse cx="223.5" cy="292.9141" fill="#84BE84" rx="3" ry="3" style="stroke:#038048;stroke-width:1.0;"/><text fill="#000000" font-family="sans-serif" font-size="14" lengthAdjust="spacing" textLength="37" x="232.5" y="297.1426">load()</text><ellipse cx="223.5" cy="310.5234" fill="#84BE84" rx="3" ry="3" style="stroke:#038048;stroke-width:1.0;"/><text fill="#000000" font-family="sans-serif" font-size="14" lengthAdjust="spacing" textLength="42" x="232.5" y="314.752">store()</text><ellipse cx="223.5" cy="328.1328" fill="#84BE84" rx="3" ry="3" style="stroke:#038048;stroke-width:1.0;"/><text fill="#000000" font-family="sans-serif" font-size="14" lengthAdjust="spacing" textLength="91" x="232.5" y="332.3613">clearStorage()</text></g><!--reverse link LocationManager to LocationWorker--><g id="link_LocationManager_LocationWorker"><path codeLine="20" d="M152.9217,171.559 C139.9217,194.489 131.91,208.61 120.15,229.35 " fill="none" id="LocationManager-backto-LocationWorker" style="stroke:#181818;stroke-width:1.0;"/><polygon fill="#181818" points="158.84,161.12,152.4012,164.3667,152.9217,171.559,159.3605,168.3123,158.84,161.12" style="stroke:#181818;stroke-width:1.0;"/></g><!--reverse link LocationManager to LocationObfuscator--><g id="link_LocationManager_LocationObfuscator"><path codeLine="21" d="M251.5104,171.535 C262.8704,191.385 268.97,202.04 279.7,220.8 " fill="none" id="LocationManager-backto-LocationObfuscator" style="stroke:#181818;stroke-width:1.0;"/><polygon fill="#181818" points="245.55,161.12,245.0585,168.3143,251.5104,171.535,252.0019,164.3407,245.55,161.12" style="stroke:#181818;stroke-width:1.0;"/></g><!--SRC=[VL2x3i8m3Dpx5Hrvg5zHYGa44Y1cDtMhg26kx7H2_3kcIbge49dik_XyP-D09D-JWM397y13Y_p8SdtR5iFEUZmXtws8qglrH9G4BB-f99OW2S3Xmc0wwziPf7w13O8bE5SfgCWpCr_MRiHTSbRJkujZvC-grMCT-sBSbyQkVGq1PHIqFY0tO70IFLRD85fIYamHm2c4YqNqxGZgZmoCgJ4EWTK9wm77ROkRvfkYM8Jv-sMszW80]--></g></svg>